{
  "accessors": [
    {
      "name": "spiderman_ffh1_reference.001-Mesh_0_positions",
      "componentType": 5126,
      "count": 931,
      "min": [
        -12.338333129882812,
        34.992549896240234,
        -5.900457859039307
      ],
      "max": [
        11.610092163085938,
        45.5774040222168,
        7.6023430824279785
      ],
      "type": "VEC3",
      "bufferView": 0,
      "byteOffset": 0
    },
    {
      "name": "spiderman_ffh1_reference.001-Mesh_0_normals",
      "componentType": 5126,
      "count": 931,
      "min": [
        -0.999947190284729,
        -0.992514967918396,
        -0.9971792697906494
      ],
      "max": [
        0.9973763227462769,
        0.9936757683753967,
        0.9972394704818726
      ],
      "type": "VEC3",
      "bufferView": 1,
      "byteOffset": 0
    },
    {
      "name": "spiderman_ffh1_reference.001-Mesh_0_texcoords",
      "componentType": 5126,
      "count": 931,
      "min": [
        0.004645999986678362,
        -0.6804199814796448
      ],
      "max": [
        0.2978520095348358,
        -0.4995119869709015
      ],
      "type": "VEC2",
      "bufferView": 2,
      "byteOffset": 0
    },
    {
      "name": "spiderman_ffh1_reference.001-Mesh_0_indices",
      "componentType": 5123,
      "count": 4272,
      "min": [
        0
      ],
      "max": [
        930
      ],
      "type": "SCALAR",
      "bufferView": 3,
      "byteOffset": 0
    },
    {
      "name": "spiderman_ffh1_reference.001-Mesh_1_positions",
      "componentType": 5126,
      "count": 4907,
      "min": [
        -12.680362701416016,
        0.23041099309921265,
        -7.757771968841553
      ],
      "max": [
        11.62119197845459,
        73.58814239501953,
        8.885890007019043
      ],
      "type": "VEC3",
      "bufferView": 0,
      "byteOffset": 11172
    },
    {
      "name": "spiderman_ffh1_reference.001-Mesh_1_normals",
      "componentType": 5126,
      "count": 4907,
      "min": [
        -0.9998559355735779,
        -0.9991177916526794,
        -0.9998763203620911
      ],
      "max": [
        0.9997243285179138,
        0.9999777674674988,
        0.9994252324104309
      ],
      "type": "VEC3",
      "bufferView": 1,
      "byteOffset": 11172
    },
    {
      "name": "spiderman_ffh1_reference.001-Mesh_1_texcoords",
      "componentType": 5126,
      "count": 4907,
      "min": [
        0.0148930000141263,
        -0.9900739789009094
      ],
      "max": [
        0.9785159826278687,
        -0.004395000170916319
      ],
      "type": "VEC2",
      "bufferView": 2,
      "byteOffset": 7448
    },
    {
      "name": "spiderman_ffh1_reference.001-Mesh_1_indices",
      "componentType": 5123,
      "count": 24063,
      "min": [
        0
      ],
      "max": [
        4906
      ],
      "type": "SCALAR",
      "bufferView": 3,
      "byteOffset": 8544
    }
  ],
  "asset": {
    "generator": "obj2gltf",
    "version": "2.0"
  },
  "buffers": [
    {
      "name": "spiderman_ffh1_reference",
      "byteLength": 1932584,
      "uri": "data:application/octet-stream;base64,"
    }
  ],
  "bufferViews": [
    {
      "name": "bufferView_0",
      "buffer": 0,
      "byteLength": 70056,
      "byteOffset": 0,
      "byteStride": 12,
      "target": 34962
    },
    {
      "name": "bufferView_1",
      "buffer": 0,
      "byteLength": 70056,
      "byteOffset": 70056,
      "byteStride": 12,
      "target": 34962
    },
    {
      "name": "bufferView_2",
      "buffer": 0,
      "byteLength": 46704,
      "byteOffset": 140112,
      "byteStride": 8,
      "target": 34962
    },
    {
      "name": "bufferView_3",
      "buffer": 0,
      "byteLength": 56672,
      "byteOffset": 186816,
      "target": 34963
    },
    {
      "buffer": 0,
      "byteOffset": 243488,
      "byteLength": 678740
    },
    {
      "buffer": 0,
      "byteOffset": 922228,
      "byteLength": 1010354
    }
  ],
  "images": [
    {
      "name": "Gear",
      "mimeType": "image/png",
      "bufferView": 4
    },
    {
      "name": "body_d",
      "mimeType": "image/png",
      "bufferView": 5
    }
  ],
  "materials": [
    {
      "name": "Gear",
      "pbrMetallicRoughness": {
        "baseColorTexture": {
          "index": 0
        },
        "baseColorFactor": [
          1,
          1,
          1,
          1
        ],
        "metallicFactor": 0,
        "roughnessFactor": 0.903921569
      },
      "emissiveFactor": [
        0,
        0,
        0
      ],
      "alphaMode": "OPAQUE",
      "doubleSided": false
    },
    {
      "name": "body_d",
      "pbrMetallicRoughness": {
        "baseColorTexture": {
          "index": 1
        },
        "baseColorFactor": [
          1,
          1,
          1,
          1
        ],
        "metallicFactor": 0,
        "roughnessFactor": 0.903921569
      },
      "emissiveFactor": [
        0,
        0,
        0
      ],
      "alphaMode": "OPAQUE",
      "doubleSided": false
    }
  ],
  "meshes": [
    {
      "name": "spiderman_ffh1_reference.001-Mesh",
      "primitives": [
        {
          "attributes": {
            "POSITION": 0,
            "NORMAL": 1,
            "TEXCOORD_0": 2
          },
          "indices": 3,
          "material": 0,
          "mode": 4
        },
        {
          "attributes": {
            "POSITION": 4,
            "NORMAL": 5,
            "TEXCOORD_0": 6
          },
          "indices": 7,
          "material": 1,
          "mode": 4
        }
      ]
    }
  ],
  "nodes": [
    {
      "name": "spiderman_ffh1_reference.001",
      "mesh": 0
    }
  ],
  "samplers": [
    {
      "magFilter": 9729,
      "minFilter": 9986,
      "wrapS": 10497,
      "wrapT": 10497
    }
  ],
  "scene": 0,
  "scenes": [
    {
      "nodes": [
        0
      ]
    }
  ],
  "textures": [
    {
      "name": "Gear",
      "sampler": 0,
      "source": 0
    },
    {
      "name": "body_d",
      "sampler": 0,
      "source": 1
    }
  ]
}
